<svg xmlns="http://www.w3.org/2000/svg" version="1.1" xmlns:xlink="http://www.w3.org/1999/xlink" width="1500" height="1500" viewBox="0 0 1500 1500"><rect width="1500" height="1500" x="0" y="0" id="background" stroke="transparent" fill="#000000"></rect><svg xml:space="preserve" width="1000" height="1000" data-version="2" data-id="lg_xu4Ztyrsk06BGNeNGU" viewBox="0 0 329 154" x="250" y="250"><rect width="100%" height="100%" fill="transparent"></rect><path fill="#000000" d="M147.611 88.823c0-.977.788-1.71 1.72-1.71h4.242c.924 0 1.675.733 1.675 1.71v4.466c0 .976-.751 1.725-1.675 1.725h-4.242a1.719 1.719 0 0 1-1.72-1.725z"></path><path fill="#000000" d="M176.577 49.458h2.391l8.077 8.106a3.966 3.966 0 0 0 2.793 1.17c.509 0 .976-.09 1.464-.293 1.476-.612 2.392-2.043 2.392-3.642v-6.195c1.317-.521 2.242-1.253 3.158-2.17 1.957-1.958 3.162-4.518 3.162-7.025V27.098c0-2.507-1.159-5.029-3.116-6.987s-4.553-3.043-7.059-3.043h-2.202v-5.36c0-2.508-1.125-5.103-3.084-7.061-1.957-1.955-4.521-3.114-7.028-3.114h-24.623c-2.507 0-5.03 1.159-6.989 3.116-1.956 1.957-3.042 4.552-3.042 7.06v4.57h-7.152c-5.215 0-9.437 4.302-9.437 9.662v70.093c0 5.362 4.222 9.776 9.437 9.776h31.45c5.221 0 9.408-4.414 9.408-9.776zm-11.363-3.95c-3.078 0-6.28-3.02-6.28-6.098v-.57l4.84-4.654h13.751c2.507 0 5.07-1.153 7.028-3.11 1.958-1.958 3.084-4.549 3.084-7.055V21.02h2.201c3.078 0 6.225 3.002 6.225 6.079v12.31c0 3.079-3.16 6.157-6.32 6.157V54.8l-9.14-9.29zM135.72 20.757h7.153v3.265c0 .751.065 1.563.252 2.306l-.017-.05-4.525.009c-1.386 0-2.557 1.167-2.557 2.635v51.586c0 1.456 1.193 2.657 2.58 2.657h25.69c1.381 0 2.54-1.202 2.54-2.657l-.017-31.049h5.283v46.576c0 2.918-2.15 5.3-4.932 5.3h-31.45c-2.77 0-4.96-2.383-4.96-5.3V25.941c0-2.924 2.19-5.185 4.96-5.185m47.968 3.265c0 3.078-3.084 6.215-6.162 6.215h-15.389l-9.258 9.174v-9.174h.024l-.024-.001c-1.2-.007-2.385-.49-3.385-1.256a7.19 7.19 0 0 1-2.164-2.709 5.525 5.525 0 0 1-.508-2.249V11.71c0-3.076 3.004-6.225 6.081-6.225h24.623c3.078 0 6.162 3.147 6.162 6.225zM16.525 151.368q-6.9 0-10.12-3.6-3.23-3.6-3.23-10 0-4.95 1.93-8.77 1.92-3.83 5.55-6 3.62-2.18 8.67-2.18 4.55 0 6.93 1.48 2.37 1.47 2.37 3.77 0 1.4-.87 2.23-.88.82-2.58.82-.95 0-1.92-.3-.98-.3-2.13-.6t-2.75-.3q-4.15 0-6.22 2.2-2.08 2.2-2.08 6.35 0 3.95 2 5.73 2 1.77 5.45 1.77 1.7 0 2.98-.37 1.27-.38 2.4-.75 1.12-.38 2.27-.38t1.9.73q.75.72.75 2.07 0 1.55-1.25 2.95-1.25 1.4-3.75 2.28-2.5.87-6.3.87"></path><rect width="25.45" height="30.55" x="-12.72" y="-15.28" fill="none" rx="0" ry="0" transform="translate(16.4 136.6)"></rect><path fill="#000000" d="M37.075 111.218q1.6 0 2.23 1.25.62 1.25.62 3.75 0 2.15-.25 5.4-.25 3.25-.65 6.25h-.3q1.65-3.1 4.25-5t5.5-1.9q2.55 0 4.55 1.23 2 1.22 3.25 3.82 1.15 2.35 1.7 5.58.55 3.22.55 6.12 0 4.65-.63 7.4-.62 2.75-1.72 3.98-1.1 1.22-2.6 1.22-3.15 0-3.15-5.15 0-2.5.27-5.15.28-2.65.28-4.85 0-3.75-1.17-5.62-1.18-1.88-3.38-1.88-2.75 0-4.45 2.45-1.7 2.45-1.7 6.75 0 2.25.4 4.93.4 2.67.4 4.87 0 2.45-.93 3.53-.92 1.07-2.37 1.07-1.1 0-1.92-.42-.83-.43-1.41-1.7-.57-1.28-.97-3.83-.3-1.95-.6-4.55-.3-2.6-.5-5.45t-.32-5.57q-.13-2.73-.13-4.98 0-7.1 1.35-10.32 1.35-3.23 3.8-3.23"></path><rect width="26.6" height="40.05" x="-13.3" y="-20.02" fill="none" rx="0" ry="0" transform="translate(45.73 131.74)"></rect><path fill="#000000" d="M86.475 151.318q-1.7 0-2.33-1.32-.62-1.33-.72-4.23l.5.25q-2.8 5.45-10.6 5.45-3.55 0-5.9-1.27-2.35-1.28-3.48-3.4-1.12-2.13-1.12-4.63 0-4.3 3-6.82 3-2.53 7.95-2.53 3.25 0 5.65.95 2.4.95 4.1 2.65l-.85-.1q-.35-5.05-2.17-7.22-1.83-2.18-5.18-2.18-1.95 0-3.6.6-1.65.6-3.03 1.23-1.37.62-2.57.62-1.2 0-1.87-.8-.68-.8-.68-2.05 0-1.8 1.73-3.4 1.72-1.6 4.57-2.6 2.85-1 6.2-1 4.05 0 6.95 1.95 2.9 1.95 4.4 5.7 1.3 3.2 1.85 7.15t.55 8.45q0 3.4-.35 5.25t-1.08 2.58q-.72.72-1.92.72m-11.05-5.6q1.65 0 3.35-.47 1.7-.48 2.85-1.43 1.15-.95 1.15-2.35 0-1.2-.97-1.97-.98-.78-2.55-1.18-1.58-.4-3.38-.4-3.05 0-4.62 1.05-1.58 1.05-1.58 2.8 0 1.9 1.47 2.93 1.48 1.02 4.28 1.02"></path><rect width="27" height="31.95" x="-13.5" y="-15.97" fill="none" rx="0" ry="0" transform="translate(76.83 136)"></rect><path fill="#000000" d="M102.875 120.718h-1q-.15-2.2.1-4.17.25-1.98 1.08-3.2.82-1.23 2.37-1.23 1.4 0 2.05.9.65.9.65 2.5 0 3.15-1.2 5.4l-.9-.1q2.7-.95 6.1-.95 2.15 0 3.43.83 1.27.82 1.27 2.77 0 1.85-1.5 2.8-1.5.95-3.75.95-1.35 0-2.87-.12-1.53-.13-2.98-.43l.85-1.05q.45 1.9.88 4.33.42 2.42.77 5.02.35 2.6.55 5.05.2 2.45.2 4.4 0 3.2-1 5.05-1 1.85-2.95 1.85-1.55 0-2.42-.95-.88-.95-1.25-2.42-.38-1.48-.45-3.08-.08-1.6-.08-2.9 0-2.2.2-4.97.2-2.78.58-5.73.37-2.95.87-5.7l1 .85q-2.55 1.3-6.3 1.3-2.3 0-3.55-.85t-1.25-2.65q0-1.95 1.4-3.02 1.4-1.08 3.75-1.08 1.55 0 2.93.18 1.37.17 2.42.42"></path><rect width="24.45" height="39.2" x="-12.22" y="-19.6" fill="none" rx="0" ry="0" transform="translate(105.1 132.22)"></rect><path fill="#000000" d="M132.675 151.368q-6.9 0-10.12-3.6-3.23-3.6-3.23-10 0-4.95 1.93-8.77 1.92-3.83 5.55-6 3.62-2.18 8.67-2.18 4.55 0 6.93 1.48 2.37 1.47 2.37 3.77 0 1.4-.87 2.23-.88.82-2.58.82-.95 0-1.92-.3-.98-.3-2.13-.6t-2.75-.3q-4.15 0-6.22 2.2-2.08 2.2-2.08 6.35 0 3.95 2 5.73 2 1.77 5.45 1.77 1.7 0 2.98-.37 1.27-.38 2.4-.75 1.12-.38 2.27-.38t1.9.73q.75.72.75 2.07 0 1.55-1.25 2.95-1.25 1.4-3.75 2.28-2.5.87-6.3.87"></path><rect width="25.45" height="30.55" x="-12.72" y="-15.28" fill="none" rx="0" ry="0" transform="translate(132.55 136.6)"></rect><path fill="#000000" d="M160.225 150.968q-4 0-6.97-1.77-2.98-1.78-4.6-5.08-1.63-3.3-1.63-7.85 0-4.75 1.65-8.3 1.65-3.55 4.68-5.55 3.02-2 7.02-2 4.3 0 7.45 1.93 3.15 1.92 4.9 5.37 1.75 3.45 1.75 8.05 0 4.7-1.75 8.1-1.75 3.4-4.95 5.25t-7.55 1.85m.7-6.75q3.1 0 4.93-2.47 1.82-2.48 1.82-6.58 0-4.15-1.82-6.6-1.83-2.45-4.93-2.45-3.2 0-5.05 2.45-1.85 2.45-1.85 6.6 0 4.1 1.85 6.58 1.85 2.47 5.05 2.47"></path><rect width="27.45" height="30.55" x="-13.72" y="-15.28" fill="none" rx="0" ry="0" transform="translate(161.25 136.2)"></rect><path fill="#000000" d="M184.625 119.718q1.6 0 2.18 1.3.57 1.3.57 3.85 0 .6-.07 1.28-.08.67-.23 1.22l-.1-1q1.2-3.25 3.7-5.07 2.5-1.83 5.3-1.83 3.1 0 5.18 1.75 2.07 1.75 3.1 4.9 1.02 3.15 1.02 7.45 0 2.65-.22 5.23-.23 2.57-.6 4.7-.38 2.12-.83 3.47-.6 1.7-1.55 2.53-.95.82-2.25.82t-2-.95q-.7-.95-.7-2.55 0-1.7.25-4.12.25-2.43.48-4.95.22-2.53.22-4.58 0-7-4.6-7-2.45 0-4.1 2.18-1.65 2.17-2.2 6.17-.15 1.35-.15 3.35t.03 3.98q.02 1.97-.13 3.32-.2 3-1.12 4.3-.93 1.3-2.53 1.3-1.85 0-2.8-1.72-.95-1.73-.95-5.83 0-2.1.1-4.7t.28-5.22q.17-2.63.42-4.78.5-4.05 1.45-6.42.95-2.38 2.85-2.38"></path><rect width="25.75" height="31.3" x="-12.88" y="-15.65" fill="none" rx="0" ry="0" transform="translate(192.9 135.62)"></rect><path fill="#000000" d="M216.475 119.718q1.6 0 2.18 1.3.57 1.3.57 3.85 0 .6-.07 1.28-.08.67-.23 1.22l-.1-1q1.2-3.25 3.7-5.07 2.5-1.83 5.3-1.83 3.1 0 5.18 1.75 2.07 1.75 3.09 4.9 1.03 3.15 1.03 7.45 0 2.65-.22 5.23-.23 2.57-.6 4.7-.38 2.12-.83 3.47-.6 1.7-1.55 2.53-.95.82-2.25.82t-2-.95q-.7-.95-.7-2.55 0-1.7.25-4.12.25-2.43.48-4.95.22-2.53.22-4.58 0-7-4.6-7-2.45 0-4.1 2.18-1.65 2.17-2.2 6.17-.15 1.35-.15 3.35t.03 3.98q.02 1.97-.13 3.32-.2 3-1.12 4.3-.93 1.3-2.53 1.3-1.85 0-2.8-1.72-.95-1.73-.95-5.83 0-2.1.1-4.7t.28-5.22q.17-2.63.42-4.78.5-4.05 1.45-6.42.95-2.38 2.85-2.38"></path><rect width="25.75" height="31.3" x="-12.88" y="-15.65" fill="none" rx="0" ry="0" transform="translate(224.75 135.62)"></rect><path fill="#000000" d="M257.225 151.218q-5.55 0-8.85-1.65t-4.75-4.75q-1.45-3.1-1.45-7.4 0-5.45 2.03-9.27 2.02-3.83 5.6-5.88 3.57-2.05 8.12-2.05 5.35 0 7.85 2.48 2.5 2.47 2.5 6.47 0 3.2-1.67 5.53-1.68 2.32-4.63 3.57t-6.8 1.25q-2.15 0-4.15-.55-2-.55-3.6-1.5l1.2-2.2q-.15 1.2-.15 2.4 0 3.5 2.2 5.03 2.2 1.52 6.25 1.52 3.15 0 5.05-.55t3.2-1.07q1.3-.53 2.55-.53.7 0 1.28.38.57.37.95 1.07.37.7.37 1.7 0 1.5-1.5 2.88-1.5 1.37-4.42 2.25-2.93.87-7.18.87m-2.9-16.35q3.55 0 5.7-1.5 2.15-1.5 2.15-3.7 0-1.75-1.17-2.87-1.18-1.13-3.68-1.13-2.35 0-4.22.88-1.88.87-2.93 2.27-1.05 1.4-1.05 3.05 0 1.45 1.38 2.23 1.37.77 3.82.77"></path><rect width="28.15" height="31" x="-14.07" y="-15.5" fill="none" rx="0" ry="0" transform="translate(256.75 136.22)"></rect><path fill="#000000" d="M287.025 151.368q-6.9 0-10.12-3.6-3.23-3.6-3.23-10 0-4.95 1.93-8.77 1.92-3.83 5.55-6 3.62-2.18 8.67-2.18 4.55 0 6.93 1.48 2.37 1.47 2.37 3.77 0 1.4-.87 2.23-.88.82-2.58.82-.95 0-1.92-.3-.98-.3-2.13-.6t-2.75-.3q-4.15 0-6.22 2.2-2.08 2.2-2.08 6.35 0 3.95 2 5.73 2 1.77 5.45 1.77 1.7 0 2.98-.37 1.27-.38 2.4-.75 1.12-.38 2.27-.38t1.9.73q.75.72.75 2.07 0 1.55-1.25 2.95-1.25 1.4-3.75 2.28-2.5.87-6.3.87"></path><rect width="25.45" height="30.55" x="-12.72" y="-15.28" fill="none" rx="0" ry="0" transform="translate(286.9 136.6)"></rect><path fill="#000000" d="M310.875 120.718h-1q-.15-2.2.1-4.17.25-1.98 1.08-3.2.82-1.23 2.37-1.23 1.4 0 2.05.9.65.9.65 2.5 0 3.15-1.2 5.4l-.9-.1q2.7-.95 6.1-.95 2.15 0 3.43.83 1.27.82 1.27 2.77 0 1.85-1.5 2.8-1.5.95-3.75.95-1.35 0-2.87-.12-1.53-.13-2.98-.43l.85-1.05q.45 1.9.88 4.33.42 2.42.77 5.02.35 2.6.55 5.05.2 2.45.2 4.4 0 3.2-1 5.05-1 1.85-2.95 1.85-1.55 0-2.42-.95-.88-.95-1.25-2.42-.38-1.48-.45-3.08-.08-1.6-.08-2.9 0-2.2.2-4.97.2-2.78.58-5.73.37-2.95.87-5.7l1 .85q-2.55 1.3-6.3 1.3-2.3 0-3.55-.85t-1.25-2.65q0-1.95 1.4-3.02 1.4-1.08 3.75-1.08 1.55 0 2.93.18 1.37.17 2.42.42"></path><rect width="24.45" height="39.2" x="-12.22" y="-19.6" fill="none" rx="0" ry="0" transform="translate(313.1 132.22)"></rect></svg></svg>